<?xml version="1.0" encoding="iso-8859-1"?>
<!-- Generator: Adobe Illustrator 19.0.0, SVG Export Plug-In . SVG Version: 6.00 Build 0)  -->
<svg xmlns="http://www.w3.org/2000/svg" xmlns:xlink="http://www.w3.org/1999/xlink" version="1.1" id="Capa_1" x="0px" y="0px" viewBox="0 0 70.906 70.906" style="enable-background:new 0 0 70.906 70.906;" xml:space="preserve" width="512px" height="512px">
<g>
	<path d="M32.469,45.85c-0.128,0-0.256-0.049-0.354-0.146c-0.195-0.195-0.195-0.512,0-0.707L42.01,35.1   c0.195-0.195,0.512-0.195,0.707,0s0.195,0.512,0,0.707l-9.895,9.896C32.725,45.801,32.597,45.85,32.469,45.85z" fill="#FFFFFF"/>
	<path d="M42.363,35.953c-0.128,0-0.256-0.049-0.354-0.146l-9.99-9.99c-0.195-0.195-0.195-0.512,0-0.707s0.512-0.195,0.707,0   l9.99,9.99c0.195,0.195,0.195,0.512,0,0.707C42.619,35.904,42.491,35.953,42.363,35.953z" fill="#FFFFFF"/>
	<path d="M35.453,70.906C15.904,70.906,0,55.002,0,35.453S15.904,0,35.453,0s35.453,15.904,35.453,35.453   S55.002,70.906,35.453,70.906z M35.453,1C16.456,1,1,16.456,1,35.453s15.456,34.453,34.453,34.453S69.906,54.45,69.906,35.453   S54.45,1,35.453,1z" fill="#FFFFFF"/>
</g>
<g>
</g>
<g>
</g>
<g>
</g>
<g>
</g>
<g>
</g>
<g>
</g>
<g>
</g>
<g>
</g>
<g>
</g>
<g>
</g>
<g>
</g>
<g>
</g>
<g>
</g>
<g>
</g>
<g>
</g>
</svg>
