<?xml version="1.0" encoding="iso-8859-1"?>
<!-- Generator: Adobe Illustrator 19.0.0, SVG Export Plug-In . SVG Version: 6.00 Build 0)  -->
<svg version="1.1" id="Layer_1" xmlns="http://www.w3.org/2000/svg" xmlns:xlink="http://www.w3.org/1999/xlink" x="0px" y="0px"
	 viewBox="0 0 512 512" style="enable-background:new 0 0 512 512;" xml:space="preserve">
<rect style="fill:#FF6D3B;" width="512" height="512"/>
<g>
	<path style="fill:#FFFFFF;" d="M372.063,385.103c0,1.167-0.448,2.337-1.336,3.228c-0.893,0.891-2.063,1.334-3.228,1.334H215.575
		V122.335h151.923c1.165,0,2.335,0.448,3.228,1.336c0.891,0.891,1.336,2.058,1.336,3.231V385.103z"/>
	<path style="fill:#FFFFFF;" d="M215.575,389.663h-71.071c-1.17,0-2.337-0.443-3.228-1.334c-0.891-0.891-1.336-2.061-1.336-3.228
		V126.902c0-1.172,0.445-2.34,1.336-3.231c0.891-0.891,2.058-1.336,3.228-1.336h71.071V389.663z"/>
</g>
<g>
	<rect x="150.042" y="228.685" style="fill:#E6E5E5;" width="55.421" height="1.795"/>
	<rect x="150.042" y="234.573" style="fill:#E6E5E5;" width="55.421" height="1.792"/>
	<rect x="150.042" y="240.435" style="fill:#E6E5E5;" width="55.421" height="1.792"/>
	<rect x="150.042" y="246.298" style="fill:#E6E5E5;" width="55.421" height="1.789"/>
	<rect x="150.042" y="252.16" style="fill:#E6E5E5;" width="55.421" height="1.792"/>
	<rect x="150.042" y="258.048" style="fill:#E6E5E5;" width="55.421" height="1.792"/>
	<rect x="150.042" y="263.91" style="fill:#E6E5E5;" width="55.421" height="1.792"/>
	<rect x="150.042" y="269.773" style="fill:#E6E5E5;" width="55.421" height="1.792"/>
	<rect x="150.042" y="275.635" style="fill:#E6E5E5;" width="55.421" height="1.789"/>
	<rect x="150.042" y="281.523" style="fill:#E6E5E5;" width="55.421" height="1.792"/>
</g>
<rect x="215.578" y="136.013" style="fill:#2B4457;" width="156.493" height="71.731"/>
<rect x="215.578" y="218.189" style="fill:#D9D8D7;" width="156.493" height="14.991"/>
<g>
	<path style="fill:#CCCBCA;" d="M150.369,207.752c-2.509,0-4.562-2.056-4.562-4.564V140.59c0-2.509,2.053-4.564,4.562-4.564h54.771
		c2.511,0,4.564,2.056,4.564,4.564v62.597c0,2.509-2.053,4.564-4.564,4.564H150.369z"/>
	<path style="fill:#CCCBCA;" d="M150.369,375.974c-2.509,0-4.562-2.053-4.562-4.567v-62.589c0-2.511,2.053-4.567,4.562-4.567h54.771
		c2.511,0,4.564,2.056,4.564,4.567v62.589c0,2.514-2.053,4.567-4.564,4.567H150.369z"/>
</g>
<g>
	<rect x="225.997" y="243.61" style="fill:#2B4457;" width="31.516" height="22.218"/>
	<rect x="263.629" y="243.61" style="fill:#2B4457;" width="31.516" height="22.218"/>
	<rect x="301.261" y="243.61" style="fill:#2B4457;" width="31.519" height="22.218"/>
	<rect x="225.997" y="273.946" style="fill:#2B4457;" width="31.516" height="22.221"/>
	<rect x="263.629" y="273.946" style="fill:#2B4457;" width="31.516" height="22.221"/>
	<rect x="301.261" y="273.946" style="fill:#2B4457;" width="31.519" height="22.221"/>
	<rect x="225.997" y="304.282" style="fill:#2B4457;" width="31.516" height="22.218"/>
	<rect x="263.629" y="304.282" style="fill:#2B4457;" width="31.516" height="22.218"/>
	<rect x="301.261" y="304.282" style="fill:#2B4457;" width="31.519" height="22.218"/>
	<rect x="225.997" y="334.592" style="fill:#2B4457;" width="31.516" height="22.218"/>
	<rect x="263.629" y="334.592" style="fill:#2B4457;" width="31.516" height="22.218"/>
	<rect x="301.261" y="334.592" style="fill:#2B4457;" width="31.519" height="22.218"/>
</g>
<g>
	<rect x="345.856" y="243.61" style="fill:#D9D8D7;" width="15.757" height="7.409"/>
	<rect x="345.856" y="258.432" style="fill:#D9D8D7;" width="15.757" height="7.404"/>
	<rect x="345.856" y="273.946" style="fill:#D9D8D7;" width="15.757" height="7.409"/>
	<rect x="345.856" y="288.768" style="fill:#D9D8D7;" width="15.757" height="7.411"/>
	<rect x="345.856" y="304.282" style="fill:#D9D8D7;" width="15.757" height="7.406"/>
	<rect x="345.856" y="319.078" style="fill:#D9D8D7;" width="15.757" height="7.409"/>
	<rect x="301.261" y="368.563" style="fill:#D9D8D7;" width="60.375" height="7.409"/>
</g>
<rect x="263.629" y="368.563" style="fill:#FF6D3B;" width="31.516" height="7.409"/>
<path style="fill:#E6E5E5;" d="M205.937,197.752c0.358-0.402,0.655-0.876,0.86-1.413c0.205-0.532,0.299-1.083,0.299-1.623V151.89
	c0-1.17-0.445-2.335-1.334-3.228c-0.893-0.891-2.058-1.336-3.231-1.336H152.98c-1.17,0-2.337,0.448-3.228,1.336
	c-0.891,0.893-1.339,2.058-1.339,3.228v42.826c0,0.54,0.097,1.091,0.3,1.623c0.207,0.538,0.499,1.011,0.86,1.413l6.013,6.735V307.51
	l-6.013,6.74c-0.361,0.397-0.653,0.876-0.86,1.411c-0.202,0.535-0.3,1.088-0.3,1.626v42.826c0,1.165,0.448,2.337,1.339,3.228
	c0.891,0.891,2.058,1.336,3.228,1.336h49.551c1.172,0,2.337-0.448,3.231-1.336c0.891-0.891,1.334-2.063,1.334-3.228v-42.826
	c0-0.538-0.095-1.091-0.3-1.626s-0.502-1.014-0.86-1.411l-6.013-6.74V204.488L205.937,197.752z"/>
<path style="fill:#D9D8D7;" d="M202.532,147.323h-14.776v217.354h14.776c1.172,0,2.337-0.448,3.231-1.336
	c0.891-0.891,1.334-2.063,1.334-3.228v-42.826c0-0.538-0.095-1.091-0.3-1.626c-0.205-0.535-0.502-1.014-0.86-1.411l-6.013-6.74
	V204.488l6.013-6.735c0.358-0.402,0.655-0.876,0.86-1.413c0.205-0.532,0.3-1.083,0.3-1.623V151.89c0-1.17-0.445-2.335-1.334-3.228
	C204.869,147.771,203.704,147.323,202.532,147.323z"/>
<g>
	<rect x="358.016" y="163.087" style="fill:#21D8DE;" width="3.61" height="17.603"/>
	<rect x="344.166" y="163.087" style="fill:#21D8DE;" width="3.612" height="17.603"/>
	<rect x="330.317" y="163.087" style="fill:#21D8DE;" width="3.612" height="17.603"/>
	<rect x="316.493" y="163.087" style="fill:#21D8DE;" width="3.612" height="17.603"/>
	<rect x="302.643" y="163.087" style="fill:#21D8DE;" width="3.612" height="17.603"/>
	<rect x="288.794" y="163.087" style="fill:#21D8DE;" width="3.615" height="17.603"/>
	<rect x="274.97" y="163.087" style="fill:#21D8DE;" width="3.61" height="17.603"/>
	<rect x="353.741" y="193.562" style="fill:#21D8DE;" width="7.877" height="7.88"/>
	<rect x="337.997" y="193.562" style="fill:#21D8DE;" width="7.88" height="7.88"/>
</g>
<rect x="322.227" y="193.562" style="fill:#FF6D3B;" width="7.875" height="7.88"/>
<g>
	<path style="fill:#F2F2F2;" d="M119.724,307.569c0,0.63,0.515,1.142,1.142,1.139l0,0c0.63,0,1.142-0.509,1.142-1.134V297.51
		c0-0.63-0.512-1.144-1.142-1.144l0,0c-0.63,0-1.144,0.515-1.144,1.144L119.724,307.569z"/>
	<path style="fill:#F2F2F2;" d="M116.216,307.599c0.015,0.63,0.54,1.132,1.17,1.119l0,0c0.63-0.015,1.129-0.543,1.116-1.172
		l-0.243-10.051c-0.013-0.635-0.538-1.132-1.172-1.119l0,0c-0.627,0.015-1.126,0.543-1.114,1.167L116.216,307.599z"/>
	<path style="fill:#F2F2F2;" d="M113.198,307.955c0.082,0.622,0.658,1.07,1.283,0.986l0,0c0.622-0.082,1.068-0.655,0.986-1.28
		l-1.295-9.974c-0.082-0.622-0.658-1.07-1.283-0.991l0,0c-0.625,0.084-1.068,0.66-0.986,1.288L113.198,307.955z"/>
	<path style="fill:#F2F2F2;" d="M110.228,308.623c0.146,0.614,0.768,0.993,1.377,0.845l0,0c0.612-0.146,0.993-0.765,0.847-1.375
		l-2.348-9.782c-0.146-0.609-0.765-0.993-1.377-0.845l0,0c-0.612,0.151-0.991,0.765-0.845,1.372L110.228,308.623z"/>
	<path style="fill:#F2F2F2;" d="M107.338,309.606c0.21,0.596,0.868,0.909,1.457,0.696l0,0c0.594-0.21,0.906-0.865,0.694-1.459
		l-3.377-9.48c-0.21-0.591-0.868-0.904-1.462-0.689l0,0c-0.591,0.21-0.899,0.865-0.691,1.454L107.338,309.606z"/>
	<path style="fill:#F2F2F2;" d="M104.545,310.907c0.274,0.576,0.96,0.809,1.526,0.535l0,0c0.568-0.274,0.806-0.96,0.532-1.528
		l-4.378-9.055c-0.276-0.568-0.963-0.801-1.528-0.53l0,0c-0.566,0.274-0.806,0.96-0.532,1.528L104.545,310.907z"/>
	<path style="fill:#F2F2F2;" d="M101.885,312.527c0.335,0.53,1.042,0.694,1.574,0.364l0,0c0.532-0.338,0.696-1.044,0.361-1.579
		l-5.345-8.52c-0.333-0.53-1.042-0.694-1.574-0.358l0,0c-0.532,0.338-0.694,1.039-0.358,1.569L101.885,312.527z"/>
	<path style="fill:#F2F2F2;" d="M99.377,314.458c0.392,0.489,1.114,0.573,1.605,0.179l0,0c0.489-0.387,0.576-1.111,0.182-1.6
		l-6.257-7.88c-0.389-0.494-1.111-0.576-1.605-0.182l0,0c-0.489,0.387-0.576,1.111-0.182,1.603L99.377,314.458z"/>
	<path style="fill:#F2F2F2;" d="M97.042,316.7c0.445,0.448,1.172,0.448,1.618,0.008l0,0c0.445-0.448,0.448-1.17,0.003-1.615
		l-7.094-7.137c-0.445-0.443-1.172-0.443-1.615,0l0,0c-0.445,0.44-0.448,1.172-0.005,1.618L97.042,316.7z"/>
	<path style="fill:#F2F2F2;" d="M94.973,319.196c0.492,0.394,1.213,0.315,1.605-0.177l0,0c0.394-0.489,0.315-1.213-0.174-1.608
		l-7.846-6.298c-0.492-0.389-1.213-0.31-1.605,0.179l0,0c-0.392,0.489-0.315,1.213,0.177,1.608L94.973,319.196z"/>
	<path style="fill:#F2F2F2;" d="M93.235,321.838c0.53,0.338,1.239,0.179,1.574-0.348l0,0c0.338-0.535,0.182-1.237-0.351-1.574
		l-8.497-5.394c-0.53-0.338-1.239-0.174-1.574,0.361l0,0c-0.338,0.527-0.179,1.231,0.351,1.569L93.235,321.838z"/>
	<path style="fill:#F2F2F2;" d="M91.82,324.621c0.566,0.271,1.254,0.041,1.531-0.525l0,0c0.279-0.566,0.044-1.252-0.52-1.528
		l-9.034-4.426c-0.566-0.279-1.252-0.044-1.528,0.522l0,0c-0.279,0.568-0.044,1.252,0.52,1.528L91.82,324.621z"/>
	<path style="fill:#F2F2F2;" d="M90.732,327.498c0.591,0.218,1.249-0.095,1.464-0.686l0,0c0.212-0.591-0.095-1.247-0.689-1.459
		l-9.457-3.425c-0.594-0.218-1.249,0.09-1.464,0.686l0,0c-0.212,0.589,0.097,1.247,0.686,1.459L90.732,327.498z"/>
	<path style="fill:#F2F2F2;" d="M89.964,330.458c0.612,0.148,1.231-0.228,1.38-0.835l0,0c0.151-0.614-0.225-1.234-0.837-1.385
		l-9.772-2.401c-0.609-0.143-1.231,0.236-1.382,0.842l0,0c-0.148,0.612,0.228,1.234,0.84,1.385L89.964,330.458z"/>
	<path style="fill:#F2F2F2;" d="M89.516,333.468c0.625,0.084,1.201-0.356,1.285-0.978l0,0c0.084-0.625-0.356-1.198-0.978-1.285
		l-9.969-1.347c-0.625-0.085-1.201,0.358-1.285,0.98l0,0c-0.084,0.625,0.356,1.201,0.978,1.283L89.516,333.468z"/>
	<path style="fill:#F2F2F2;" d="M89.388,336.504c0.63,0.018,1.157-0.481,1.178-1.111l0,0c0.015-0.63-0.481-1.157-1.111-1.175
		l-10.056-0.289c-0.63-0.018-1.157,0.481-1.172,1.111l0,0c-0.015,0.63,0.481,1.155,1.108,1.175L89.388,336.504z"/>
	<path style="fill:#F2F2F2;" d="M89.408,339.986c0.63-0.003,1.142-0.517,1.142-1.147l0,0c0-0.625-0.515-1.144-1.142-1.144
		l-10.061,0.01c-0.627,0-1.139,0.509-1.139,1.142l0,0c0,0.627,0.512,1.144,1.139,1.144L89.408,339.986z"/>
	<path style="fill:#F2F2F2;" d="M89.408,343.629c0.63,0,1.142-0.517,1.142-1.142l0,0c0-0.635-0.515-1.142-1.142-1.142l-10.061,0.003
		c-0.627,0-1.139,0.512-1.139,1.139l0,0c0,0.63,0.512,1.142,1.142,1.142L89.408,343.629L89.408,343.629z"/>
	<path style="fill:#F2F2F2;" d="M89.408,347.277c0.63,0,1.142-0.515,1.142-1.142l0,0c0-0.63-0.515-1.144-1.142-1.144l-10.061,0.003
		c-0.627,0-1.139,0.517-1.139,1.147l0,0c0,0.625,0.512,1.137,1.139,1.137H89.408z"/>
	<path style="fill:#F2F2F2;" d="M89.408,350.922c0.63,0,1.142-0.512,1.142-1.142l0,0c0-0.63-0.515-1.142-1.142-1.142l-10.061,0.003
		c-0.627,0-1.139,0.512-1.139,1.147l0,0c0,0.627,0.512,1.139,1.139,1.139L89.408,350.922z"/>
	<path style="fill:#F2F2F2;" d="M89.408,354.57c0.63,0,1.142-0.515,1.142-1.144l0,0c0-0.63-0.515-1.142-1.142-1.142l-10.061,0.003
		c-0.627,0-1.139,0.517-1.139,1.147l0,0c0,0.625,0.512,1.137,1.142,1.137H89.408z"/>
	<path style="fill:#F2F2F2;" d="M89.408,358.216c0.63,0,1.142-0.512,1.142-1.142l0,0c0-0.625-0.515-1.142-1.142-1.142l-10.061,0.005
		c-0.627,0-1.139,0.512-1.139,1.142l0,0c0,0.63,0.512,1.142,1.142,1.142L89.408,358.216z"/>
	<path style="fill:#F2F2F2;" d="M89.408,361.866c0.63,0,1.142-0.517,1.142-1.147l0,0c0-0.625-0.515-1.139-1.142-1.139H79.347
		c-0.627,0.005-1.139,0.517-1.139,1.147l0,0c0,0.63,0.512,1.139,1.139,1.139H89.408z"/>
	<path style="fill:#F2F2F2;" d="M89.408,365.509c0.63,0,1.142-0.515,1.142-1.139l0,0c0-0.635-0.515-1.147-1.142-1.147l-10.061,0.008
		c-0.627-0.003-1.139,0.512-1.139,1.142l0,0c0,0.63,0.512,1.144,1.139,1.144L89.408,365.509z"/>
	<path style="fill:#F2F2F2;" d="M89.408,369.16c0.63-0.008,1.142-0.515,1.142-1.149l0,0c0-0.625-0.515-1.137-1.142-1.137
		l-10.061,0.003c-0.627,0-1.139,0.517-1.139,1.147l0,0c0,0.625,0.512,1.137,1.142,1.137H89.408z"/>
	<path style="fill:#F2F2F2;" d="M89.408,372.803c0.63,0,1.142-0.512,1.142-1.142l0,0c0-0.63-0.515-1.147-1.142-1.147l-10.061,0.008
		c-0.627,0-1.139,0.517-1.139,1.142l0,0c0,0.63,0.512,1.142,1.139,1.142L89.408,372.803z"/>
	<path style="fill:#F2F2F2;" d="M89.408,376.456c0.63,0,1.142-0.517,1.142-1.147l0,0c0-0.63-0.515-1.142-1.142-1.142l-10.061,0.003
		c-0.627,0-1.139,0.512-1.139,1.139l0,0c0,0.632,0.512,1.147,1.142,1.147L89.408,376.456L89.408,376.456z"/>
	<path style="fill:#F2F2F2;" d="M89.408,380.101c0.63,0,1.142-0.517,1.142-1.144l0,0c0-0.63-0.515-1.142-1.142-1.142l-10.061,0.005
		c-0.627-0.005-1.139,0.512-1.139,1.142l0,0c0,0.625,0.512,1.139,1.142,1.139H89.408z"/>
	<path style="fill:#F2F2F2;" d="M89.408,383.741c0.63,0,1.142-0.507,1.142-1.142l0,0c0-0.625-0.515-1.142-1.142-1.142l-10.061,0.005
		c-0.627,0-1.139,0.515-1.139,1.144l0,0c0,0.627,0.512,1.139,1.139,1.139L89.408,383.741z"/>
	<path style="fill:#F2F2F2;" d="M89.408,387.392c0.63-0.005,1.142-0.517,1.142-1.142l0,0c0-0.63-0.515-1.147-1.142-1.147
		l-10.061,0.008c-0.627,0-1.139,0.512-1.139,1.142l0,0c0,0.627,0.512,1.142,1.142,1.142L89.408,387.392z"/>
	<path style="fill:#F2F2F2;" d="M89.408,391.037c0.63,0,1.142-0.515,1.142-1.144l0,0c0-0.625-0.515-1.142-1.142-1.142l-10.061,0.008
		c-0.627,0-1.139,0.512-1.139,1.139l0,0c0,0.63,0.512,1.147,1.142,1.147L89.408,391.037z"/>
	<path style="fill:#F2F2F2;" d="M89.408,394.685c0.63,0,1.142-0.517,1.142-1.142l0,0c0-0.63-0.515-1.142-1.142-1.142H79.347
		c-0.627,0-1.139,0.515-1.139,1.144l0,0c0,0.63,0.512,1.142,1.139,1.142L89.408,394.685z"/>
	<path style="fill:#F2F2F2;" d="M89.408,398.331c0.63,0,1.142-0.512,1.142-1.142l0,0c0-0.63-0.515-1.142-1.142-1.142l-10.061,0.005
		c-0.627,0-1.139,0.515-1.139,1.144l0,0c0,0.63,0.512,1.142,1.142,1.142L89.408,398.331z"/>
	<path style="fill:#F2F2F2;" d="M89.408,401.976c0.63,0,1.142-0.512,1.142-1.142l0,0c0-0.63-0.515-1.147-1.142-1.147l-10.061,0.008
		c-0.627,0-1.139,0.517-1.139,1.142l0,0c0,0.63,0.512,1.139,1.142,1.139L89.408,401.976L89.408,401.976z"/>
	<path style="fill:#F2F2F2;" d="M89.408,405.624c0.63-0.005,1.142-0.515,1.142-1.142l0,0c0-0.63-0.515-1.142-1.142-1.142
		l-10.061,0.005c-0.627,0-1.139,0.512-1.139,1.142l0,0c0,0.63,0.512,1.142,1.142,1.142L89.408,405.624z"/>
	<path style="fill:#F2F2F2;" d="M89.408,409.275c0.63,0,1.142-0.517,1.142-1.147l0,0c0-0.625-0.515-1.142-1.142-1.142l-10.061,0.005
		c-0.627,0-1.139,0.512-1.139,1.142l0,0c0,0.63,0.512,1.142,1.142,1.142H89.408z"/>
	<path style="fill:#F2F2F2;" d="M89.408,412.923c0.63,0,1.142-0.515,1.142-1.144l0,0c0-0.63-0.515-1.144-1.142-1.144l-10.061,0.005
		c-0.627,0-1.139,0.515-1.139,1.142l0,0c0,0.635,0.512,1.142,1.142,1.142L89.408,412.923L89.408,412.923z"/>
	<path style="fill:#F2F2F2;" d="M89.408,416.566c0.63,0,1.142-0.515,1.142-1.144l0,0c0-0.63-0.515-1.142-1.142-1.142l-10.061,0.005
		c-0.627,0-1.139,0.515-1.139,1.144l0,0c0,0.627,0.512,1.139,1.142,1.139L89.408,416.566z"/>
	<path style="fill:#F2F2F2;" d="M89.408,420.209c0.63,0,1.142-0.512,1.142-1.137l0,0c0-0.63-0.515-1.142-1.142-1.142l-10.061,0.003
		c-0.627,0-1.139,0.512-1.139,1.142l0,0c0,0.63,0.512,1.147,1.142,1.147L89.408,420.209z"/>
	<path style="fill:#F2F2F2;" d="M89.408,423.859c0.63-0.003,1.142-0.52,1.142-1.144l0,0c0-0.627-0.515-1.144-1.142-1.144
		l-10.061,0.005c-0.627,0-1.139,0.517-1.139,1.142l0,0c0,0.635,0.512,1.147,1.142,1.147L89.408,423.859z"/>
	<path style="fill:#F2F2F2;" d="M89.408,427.51c0.63,0,1.142-0.52,1.142-1.144l0,0c0-0.632-0.515-1.144-1.142-1.144l-10.061,0.003
		c-0.627,0-1.139,0.517-1.139,1.142l0,0c0,0.635,0.512,1.144,1.142,1.144H89.408z"/>
	<path style="fill:#F2F2F2;" d="M89.324,431.352c0.63,0.033,1.167-0.463,1.196-1.091l0,0c0.028-0.63-0.463-1.16-1.091-1.198
		l-10.048-0.451c-0.632-0.026-1.17,0.466-1.196,1.088l0,0c-0.026,0.635,0.463,1.17,1.091,1.198L89.324,431.352z"/>
	<path style="fill:#F2F2F2;" d="M88.671,435.576c0.62,0.123,1.221-0.292,1.336-0.909l0,0c0.115-0.617-0.294-1.219-0.914-1.336
		l-9.884-1.859c-0.62-0.113-1.219,0.297-1.334,0.911l0,0c-0.115,0.617,0.294,1.224,0.911,1.336L88.671,435.576z"/>
	<path style="fill:#F2F2F2;" d="M87.421,439.695c0.596,0.202,1.247-0.118,1.449-0.712l0,0c0.205-0.594-0.118-1.247-0.714-1.452
		l-9.523-3.238c-0.594-0.205-1.247,0.123-1.449,0.714l0,0c-0.205,0.596,0.118,1.247,0.714,1.446L87.421,439.695z"/>
	<path style="fill:#F2F2F2;" d="M85.576,443.638c0.561,0.284,1.252,0.061,1.536-0.502l0,0c0.287-0.558,0.064-1.252-0.497-1.536
		l-8.957-4.577c-0.561-0.287-1.252-0.061-1.539,0.497l0,0c-0.284,0.561-0.059,1.252,0.499,1.539L85.576,443.638z"/>
	<path style="fill:#F2F2F2;" d="M83.139,447.322c0.512,0.366,1.229,0.246,1.592-0.266l0,0c0.366-0.512,0.248-1.229-0.266-1.592
		l-8.192-5.839c-0.512-0.369-1.229-0.246-1.595,0.269l0,0c-0.366,0.509-0.243,1.226,0.266,1.595L83.139,447.322z"/>
	<path style="fill:#F2F2F2;" d="M80.115,450.688c0.456,0.438,1.18,0.422,1.618-0.028l0,0c0.435-0.456,0.425-1.18-0.028-1.615
		l-7.237-6.989c-0.453-0.435-1.18-0.422-1.618,0.031l0,0c-0.438,0.453-0.425,1.175,0.028,1.615L80.115,450.688z"/>
	<path style="fill:#F2F2F2;" d="M76.611,453.583c0.387,0.502,1.106,0.591,1.605,0.212l0,0c0.499-0.384,0.594-1.103,0.212-1.605
		l-6.124-7.982c-0.381-0.499-1.103-0.591-1.6-0.207l0,0c-0.499,0.379-0.594,1.101-0.212,1.6L76.611,453.583z"/>
	<path style="fill:#F2F2F2;" d="M72.812,455.88c0.305,0.545,1.004,0.745,1.551,0.443l0,0c0.55-0.307,0.75-1.009,0.445-1.551
		l-4.882-8.801c-0.305-0.55-1.004-0.748-1.554-0.443l0,0c-0.548,0.307-0.75,1.004-0.445,1.551L72.812,455.88z"/>
	<path style="fill:#F2F2F2;" d="M68.785,457.556c0.223,0.589,0.886,0.891,1.472,0.666l0,0c0.589-0.223,0.888-0.886,0.666-1.472
		l-3.564-9.411c-0.223-0.586-0.886-0.886-1.469-0.663l0,0c-0.589,0.223-0.891,0.888-0.668,1.472L68.785,457.556z"/>
	<path style="fill:#F2F2F2;" d="M64.607,458.632c0.136,0.617,0.75,1.006,1.364,0.873l0,0c0.614-0.141,1.006-0.755,0.868-1.37
		l-2.186-9.818c-0.141-0.609-0.75-1.004-1.364-0.868l0,0c-0.614,0.141-1.006,0.753-0.868,1.367L64.607,458.632z"/>
	<path style="fill:#F2F2F2;" d="M60.352,459.11c0.051,0.625,0.604,1.093,1.226,1.05l0,0c0.63-0.054,1.103-0.602,1.055-1.231
		l-0.788-10.03c-0.051-0.627-0.602-1.096-1.226-1.047l0,0c-0.63,0.051-1.101,0.599-1.052,1.226L60.352,459.11z"/>
	<path style="fill:#F2F2F2;" d="M56.084,458.982c-0.038,0.625,0.44,1.167,1.07,1.208l0,0c0.63,0.041,1.172-0.44,1.211-1.07
		l0.627-10.04c0.038-0.625-0.443-1.172-1.07-1.213l0,0c-0.627-0.036-1.172,0.443-1.211,1.07L56.084,458.982z"/>
	<path style="fill:#F2F2F2;" d="M51.866,458.253c-0.125,0.614,0.274,1.221,0.891,1.352l0,0c0.614,0.125,1.224-0.274,1.349-0.891
		l2.028-9.856c0.128-0.617-0.271-1.224-0.888-1.347l0,0c-0.614-0.128-1.224,0.271-1.352,0.888L51.866,458.253z"/>
	<path style="fill:#F2F2F2;" d="M47.767,456.929c-0.212,0.589,0.1,1.244,0.691,1.462l0,0c0.591,0.207,1.247-0.095,1.462-0.691
		l3.407-9.464c0.212-0.591-0.097-1.252-0.689-1.459l0,0c-0.591-0.212-1.252,0.095-1.462,0.689L47.767,456.929z"/>
	<path style="fill:#F2F2F2;" d="M43.855,455.007c-0.297,0.558-0.082,1.252,0.474,1.549l0,0c0.556,0.292,1.252,0.079,1.546-0.474
		l4.733-8.878c0.297-0.553,0.087-1.247-0.468-1.541l0,0c-0.556-0.297-1.249-0.09-1.546,0.466L43.855,455.007z"/>
	<path style="fill:#F2F2F2;" d="M40.205,452.498c-0.376,0.504-0.269,1.226,0.241,1.603l0,0c0.504,0.366,1.224,0.264,1.597-0.243
		l5.983-8.079c0.376-0.507,0.269-1.226-0.238-1.603l0,0c-0.504-0.374-1.224-0.266-1.6,0.241L40.205,452.498z"/>
	<path style="fill:#F2F2F2;" d="M36.887,449.408c-0.445,0.445-0.445,1.175,0,1.615l0,0c0.443,0.445,1.17,0.445,1.615,0.003
		l7.117-7.109c0.445-0.443,0.445-1.172,0.003-1.615l0,0c-0.445-0.448-1.172-0.448-1.62,0L36.887,449.408z"/>
	<path style="fill:#F2F2F2;" d="M34.061,445.86c-0.504,0.374-0.612,1.101-0.238,1.597l0,0c0.374,0.504,1.091,0.614,1.597,0.246
		l8.092-5.972c0.507-0.374,0.614-1.101,0.241-1.603l0,0c-0.374-0.504-1.093-0.614-1.6-0.238L34.061,445.86z"/>
	<path style="fill:#F2F2F2;" d="M31.844,442.03c-0.556,0.292-0.765,0.988-0.474,1.546l0,0c0.297,0.55,0.991,0.765,1.549,0.471
		l8.881-4.728c0.556-0.294,0.768-0.988,0.471-1.546l0,0c-0.3-0.553-0.991-0.765-1.546-0.474L31.844,442.03z"/>
	<path style="fill:#F2F2F2;" d="M30.236,437.978c-0.591,0.212-0.904,0.873-0.691,1.462l0,0c0.212,0.591,0.87,0.901,1.462,0.689
		l9.469-3.392c0.591-0.215,0.901-0.868,0.689-1.464l0,0c-0.212-0.589-0.868-0.901-1.462-0.689L30.236,437.978z"/>
	<path style="fill:#F2F2F2;" d="M29.235,433.787c-0.617,0.128-1.014,0.732-0.891,1.352l0,0c0.128,0.614,0.735,1.014,1.349,0.893
		l9.856-2.017c0.617-0.131,1.016-0.737,0.891-1.352l0,0c-0.123-0.614-0.732-1.016-1.349-0.891L29.235,433.787z"/>
	<path style="fill:#F2F2F2;" d="M28.836,429.53c-0.627,0.038-1.108,0.584-1.07,1.211l0,0c0.038,0.625,0.584,1.106,1.208,1.073
		l10.043-0.614c0.63-0.038,1.108-0.584,1.07-1.208l0,0c-0.038-0.63-0.581-1.116-1.208-1.075L28.836,429.53z"/>
	<path style="fill:#F2F2F2;" d="M29.038,425.262c-0.63-0.051-1.18,0.422-1.229,1.047l0,0c-0.051,0.627,0.422,1.18,1.047,1.231
		l10.028,0.796c0.627,0.054,1.178-0.422,1.226-1.047l0,0c0.049-0.622-0.422-1.18-1.047-1.231L29.038,425.262z"/>
	<path style="fill:#F2F2F2;" d="M29.839,421.056c-0.614-0.136-1.226,0.256-1.364,0.868l0,0c-0.136,0.614,0.251,1.229,0.865,1.367
		l9.818,2.196c0.612,0.138,1.226-0.253,1.362-0.865l0,0c0.138-0.614-0.253-1.234-0.865-1.367L29.839,421.056z"/>
	<path style="fill:#F2F2F2;" d="M31.237,416.978c-0.586-0.223-1.252,0.077-1.475,0.663l0,0c-0.223,0.589,0.074,1.249,0.663,1.472
		l9.4,3.574c0.586,0.225,1.252-0.072,1.475-0.666l0,0c0.223-0.586-0.072-1.249-0.66-1.472L31.237,416.978z"/>
	<path style="fill:#F2F2F2;" d="M33.229,413.092c-0.55-0.302-1.247-0.108-1.554,0.443l0,0c-0.307,0.55-0.108,1.249,0.44,1.556
		l8.791,4.892c0.548,0.307,1.247,0.108,1.551-0.443l0,0c0.307-0.55,0.11-1.249-0.438-1.556L33.229,413.092z"/>
	<path style="fill:#F2F2F2;" d="M35.814,409.48c-0.502-0.379-1.224-0.289-1.605,0.207l0,0c-0.384,0.502-0.292,1.219,0.21,1.605
		l7.974,6.129c0.497,0.384,1.219,0.289,1.603-0.207l0,0c0.384-0.497,0.292-1.221-0.21-1.605L35.814,409.48z"/>
	<path style="fill:#F2F2F2;" d="M38.971,406.208c-0.438-0.451-1.165-0.468-1.618-0.028l0,0c-0.451,0.433-0.468,1.16-0.031,1.615
		l6.976,7.245c0.438,0.456,1.167,0.471,1.618,0.031l0,0c0.453-0.438,0.466-1.165,0.031-1.615L38.971,406.208z"/>
	<path style="fill:#F2F2F2;" d="M42.555,403.459c-0.366-0.509-1.083-0.632-1.595-0.266l0,0c-0.512,0.369-0.635,1.08-0.271,1.597
		l5.829,8.195c0.364,0.512,1.08,0.632,1.592,0.269l0,0c0.515-0.369,0.635-1.08,0.271-1.597L42.555,403.459z"/>
	<path style="fill:#F2F2F2;" d="M46.42,401.318c-0.287-0.563-0.98-0.788-1.539-0.499l0,0c-0.561,0.284-0.786,0.978-0.497,1.539
		l4.564,8.963c0.287,0.563,0.978,0.786,1.539,0.499l0,0c0.558-0.282,0.783-0.98,0.499-1.541L46.42,401.318z"/>
	<path style="fill:#F2F2F2;" d="M50.488,399.785c-0.202-0.596-0.852-0.919-1.446-0.714l0,0c-0.594,0.2-0.919,0.85-0.717,1.446
		l3.228,9.528c0.2,0.591,0.852,0.914,1.446,0.709l0,0c0.596-0.197,0.919-0.85,0.719-1.444L50.488,399.785z"/>
	<path style="fill:#F2F2F2;" d="M54.692,398.853c-0.115-0.617-0.714-1.027-1.334-0.911l0,0c-0.617,0.115-1.032,0.714-0.914,1.334
		l1.846,9.889c0.118,0.614,0.717,1.024,1.334,0.911l0,0c0.617-0.118,1.029-0.717,0.914-1.334L54.692,398.853z"/>
	<path style="fill:#F2F2F2;" d="M58.957,398.531c-0.028-0.63-0.563-1.121-1.193-1.091l0,0c-0.63,0.026-1.119,0.563-1.091,1.19
		l0.438,10.051c0.028,0.63,0.566,1.116,1.193,1.091l0,0c0.63-0.028,1.121-0.566,1.091-1.193L58.957,398.531z"/>
	<path style="fill:#F2F2F2;" d="M62.794,398.554c0-0.63-0.515-1.142-1.142-1.142l0,0c-0.63,0-1.144,0.517-1.144,1.142l0.008,10.061
		c0,0.63,0.515,1.142,1.144,1.142l0,0c0.627,0,1.142-0.512,1.142-1.142L62.794,398.554z"/>
	<path style="fill:#F2F2F2;" d="M66.442,398.554c0-0.63-0.515-1.142-1.142-1.142l0,0c-0.63,0-1.144,0.517-1.144,1.142l0.008,10.061
		c0,0.63,0.515,1.142,1.144,1.142l0,0c0.63,0,1.142-0.512,1.142-1.142L66.442,398.554z"/>
	<path style="fill:#F2F2F2;" d="M70.09,398.554c0-0.63-0.517-1.142-1.144-1.142l0,0c-0.63,0-1.144,0.517-1.144,1.142l0.01,10.061
		c0,0.63,0.517,1.142,1.142,1.142l0,0c0.63,0,1.144-0.512,1.144-1.142L70.09,398.554z"/>
	<path style="fill:#F2F2F2;" d="M73.736,398.554c0-0.63-0.517-1.142-1.142-1.142l0,0c-0.63,0-1.144,0.517-1.144,1.142l0.005,10.061
		c0.003,0.63,0.52,1.142,1.144,1.142l0,0c0.63,0,1.144-0.512,1.144-1.142L73.736,398.554z"/>
	<path style="fill:#F2F2F2;" d="M77.381,398.554c0-0.63-0.515-1.142-1.144-1.142l0,0c-0.627,0-1.142,0.517-1.142,1.142l0.008,10.061
		c0,0.63,0.517,1.142,1.144,1.142l0,0c0.63,0,1.144-0.512,1.144-1.142L77.381,398.554z"/>
	<path style="fill:#F2F2F2;" d="M93.568,398.574c0-0.627-0.515-1.139-1.142-1.139c-0.63,0-1.142,0.512-1.142,1.139v10.063
		c0,0.625,0.512,1.139,1.142,1.139c0.627,0,1.142-0.509,1.142-1.139V398.574z"/>
	<path style="fill:#F2F2F2;" d="M97.508,398.574c0-0.627-0.517-1.139-1.142-1.139c-0.63,0-1.144,0.512-1.144,1.139v10.063
		c0,0.625,0.517,1.139,1.144,1.139c0.63,0,1.144-0.509,1.144-1.139v-10.063H97.508z"/>
	<path style="fill:#F2F2F2;" d="M101.448,398.574c0-0.627-0.517-1.139-1.144-1.139s-1.142,0.512-1.142,1.139v10.063
		c0,0.625,0.515,1.139,1.142,1.139c0.63,0,1.144-0.509,1.144-1.139V398.574z"/>
	<path style="fill:#F2F2F2;" d="M105.39,398.574c0-0.627-0.52-1.139-1.144-1.139c-0.627,0-1.142,0.512-1.142,1.139v10.063
		c0,0.625,0.515,1.139,1.142,1.139c0.63,0,1.144-0.509,1.144-1.139V398.574z"/>
	<path style="fill:#F2F2F2;" d="M109.33,398.574c0-0.627-0.517-1.139-1.144-1.139c-0.63,0-1.144,0.512-1.144,1.139v10.063
		c0,0.625,0.515,1.139,1.142,1.139s1.144-0.509,1.144-1.139v-10.063H109.33z"/>
	<path style="fill:#F2F2F2;" d="M113.27,398.574c0-0.627-0.515-1.139-1.142-1.139c-0.63,0-1.144,0.512-1.144,1.139v10.063
		c0,0.625,0.515,1.139,1.144,1.139c0.63,0,1.144-0.509,1.144-1.139v-10.063H113.27z"/>
	<path style="fill:#F2F2F2;" d="M117.21,398.574c0-0.627-0.515-1.139-1.142-1.139c-0.63,0-1.144,0.512-1.144,1.139v10.063
		c0,0.625,0.515,1.139,1.144,1.139c0.63,0,1.144-0.509,1.144-1.139v-10.063H117.21z"/>
	<path style="fill:#F2F2F2;" d="M121.149,398.574c0-0.627-0.515-1.139-1.142-1.139c-0.63,0-1.144,0.512-1.144,1.139v10.063
		c0,0.625,0.515,1.139,1.142,1.139c0.63,0,1.144-0.509,1.144-1.139V398.574z"/>
	<path style="fill:#F2F2F2;" d="M125.089,398.574c0-0.627-0.515-1.139-1.142-1.139c-0.63,0-1.144,0.512-1.144,1.139v10.063
		c0,0.625,0.515,1.139,1.144,1.139c0.627,0,1.142-0.509,1.142-1.139V398.574z"/>
	<path style="fill:#F2F2F2;" d="M129.029,398.574c0-0.627-0.515-1.139-1.139-1.139c-0.63,0-1.144,0.512-1.144,1.139v10.063
		c0,0.625,0.515,1.139,1.142,1.139c0.63,0,1.142-0.509,1.142-1.139V398.574z"/>
	<path style="fill:#F2F2F2;" d="M132.969,398.574c0-0.627-0.512-1.139-1.139-1.139c-0.632,0-1.144,0.512-1.144,1.139v10.063
		c0,0.625,0.517,1.139,1.142,1.139c0.63,0,1.142-0.509,1.142-1.139V398.574z"/>
	<path style="fill:#F2F2F2;" d="M136.909,398.574c0-0.627-0.515-1.139-1.142-1.139c-0.63,0-1.142,0.512-1.142,1.139v10.063
		c0,0.625,0.512,1.139,1.139,1.139c0.63,0,1.144-0.509,1.144-1.139V398.574z"/>
	<path style="fill:#F2F2F2;" d="M140.851,398.574c0-0.627-0.512-1.139-1.142-1.139s-1.144,0.512-1.144,1.139v10.063
		c0,0.625,0.515,1.139,1.144,1.139s1.142-0.509,1.142-1.139V398.574z"/>
	<path style="fill:#F2F2F2;" d="M144.791,398.574c0-0.627-0.515-1.139-1.142-1.139c-0.63,0-1.144,0.512-1.144,1.139v10.063
		c0,0.625,0.517,1.139,1.144,1.139s1.142-0.509,1.142-1.139V398.574z"/>
	<path style="fill:#F2F2F2;" d="M148.733,398.574c0-0.627-0.517-1.139-1.144-1.139s-1.144,0.512-1.144,1.139v10.063
		c0,0.625,0.517,1.139,1.144,1.139c0.63,0,1.144-0.509,1.144-1.139V398.574z"/>
	<path style="fill:#F2F2F2;" d="M152.673,398.574c0-0.627-0.515-1.139-1.144-1.139s-1.142,0.512-1.144,1.139v10.063
		c0,0.625,0.517,1.139,1.144,1.139c0.63,0,1.144-0.509,1.144-1.139V398.574z"/>
	<path style="fill:#F2F2F2;" d="M156.611,398.574c0-0.627-0.515-1.139-1.142-1.139c-0.63,0-1.142,0.512-1.144,1.139v10.063
		c0,0.625,0.52,1.139,1.144,1.139c0.63,0,1.142-0.509,1.142-1.139V398.574z"/>
	<path style="fill:#F2F2F2;" d="M160.553,398.574c0-0.627-0.515-1.139-1.142-1.139c-0.63,0-1.142,0.512-1.144,1.139v10.063
		c0,0.625,0.517,1.139,1.144,1.139c0.63,0,1.144-0.509,1.144-1.139v-10.063H160.553z"/>
	<path style="fill:#F2F2F2;" d="M164.493,398.574c0-0.627-0.515-1.139-1.142-1.139c-0.63,0-1.142,0.512-1.144,1.139v10.063
		c0,0.625,0.517,1.139,1.142,1.139c0.63,0,1.144-0.509,1.144-1.139V398.574z"/>
	<path style="fill:#F2F2F2;" d="M168.433,398.574c0-0.627-0.517-1.139-1.142-1.139c-0.632,0-1.144,0.512-1.147,1.139v10.063
		c0,0.625,0.517,1.139,1.144,1.139s1.144-0.509,1.144-1.139V398.574z"/>
	<path style="fill:#F2F2F2;" d="M176.814,364.677v40.612c0,0.594-0.233,1.165-0.655,1.585c-0.85,0.847-2.327,0.847-3.174,0
		c-0.425-0.42-0.655-0.991-0.655-1.585v-6.733c0-0.622-0.504-1.121-1.121-1.121s-1.121,0.499-1.121,1.121v6.733
		c0,1.201,0.463,2.324,1.313,3.174c0.847,0.845,1.974,1.313,3.174,1.313c1.198,0,2.327-0.468,3.174-1.313
		c0.85-0.85,1.313-1.974,1.313-3.174v-40.612H176.814z"/>
	<path style="fill:#F2F2F2;" d="M134.684,303.549c-0.599,0-1.165-0.236-1.587-0.66c-0.425-0.425-0.655-0.986-0.655-1.582v-0.456
		c0-1.198-0.468-2.324-1.316-3.174c-0.847-0.845-1.974-1.313-3.174-1.313c-1.198,0-2.327,0.469-3.174,1.313
		c-0.85,0.85-1.313,1.976-1.313,3.174v6.733c0,0.62,0.502,1.121,1.121,1.121s1.121-0.502,1.121-1.121v-6.733
		c0-0.599,0.233-1.165,0.658-1.585c0.847-0.847,2.327-0.847,3.174,0c0.425,0.42,0.658,0.986,0.658,1.585v0.456
		c0,1.196,0.466,2.322,1.313,3.167c0.847,0.85,1.974,1.321,3.174,1.321h5.256v-2.245H134.684z"/>
</g>
<g>
</g>
<g>
</g>
<g>
</g>
<g>
</g>
<g>
</g>
<g>
</g>
<g>
</g>
<g>
</g>
<g>
</g>
<g>
</g>
<g>
</g>
<g>
</g>
<g>
</g>
<g>
</g>
<g>
</g>
</svg>
